# xmcd CD database file
#
# Track frame offsets:
#	150
#	21618
#	38083
#	61347
#	79154
#	103331
#	120968
#	144907
#	161682
#	185565
#	205768
#	216897
#	233613
#	251871
#
# Disc length: 3687 seconds
#
# Revision: 0
# Processed by: cddbd v1.5.2PL0 Copyright (c) Steve Scherf et al.
# Submitted via: CDex 1.51
#
DISCID=c40e650e
DTITLE=Collegium Dixicum - Casey Jones - Der Eiserbohmoo
DYEAR=2001
DGENRE=Jazz
TTITLE0=Blues My Naughty Sweety
TTITLE1=St. Louis Blues
TTITLE2=Louisiana
TTITLE3=Casey Jones
TTITLE4=Blue Turning Grey Over You
TTITLE5=Ostrich Walk
TTITLE6=After You've Gone
TTITLE7=Georgia On My Mind
TTITLE8=Limehouse Blues
TTITLE9=New Orleans
TTITLE10=Love Is Here To Stay
TTITLE11=Some Of These Days
TTITLE12=Creole Love Call
TTITLE13=That's A Plenty
EXTD=YEAR: 2001
EXTT0=
EXTT1=
EXTT2=
EXTT3=
EXTT4=
EXTT5=
EXTT6=
EXTT7=
EXTT8=
EXTT9=
EXTT10=
EXTT11=
EXTT12=
EXTT13=
PLAYORDER=
